<?xml version="1.0" encoding="iso-8859-1"?>
<!-- Uploaded to: SVG Repo, www.svgrepo.com, Generator: SVG Repo Mixer Tools -->
<svg fill="#000000" height="800px" width="800px" version="1.1" id="Layer_1" xmlns="http://www.w3.org/2000/svg" xmlns:xlink="http://www.w3.org/1999/xlink" 
	 viewBox="0 0 512 512" xml:space="preserve">
<g>
	<g>
		<path d="M436.994,74.943c-99.834-99.833-262.285-99.833-362.119,0c-99.834,99.834-99.834,262.275,0,362.109
			c49.917,49.917,115.493,74.881,181.059,74.881c65.566,0,131.142-24.964,181.059-74.881C485.359,388.692,512,324.393,512,255.997
			C512,187.603,485.359,123.302,436.994,74.943z M421.908,421.966c-91.52,91.513-240.426,91.524-331.946,0
			c-91.509-91.516-91.509-240.422,0-331.935c45.76-45.761,105.866-68.64,165.973-68.64c60.106,0,120.213,22.879,165.973,68.64
			c44.332,44.331,68.754,103.271,68.754,165.966C490.662,318.693,466.24,377.632,421.908,421.966z"/>
	</g>
</g>
<g>
	<g>
		<polygon points="271.024,255.996 376.648,150.375 361.561,135.289 255.937,240.908 150.318,135.289 135.232,150.375 
			240.851,255.994 142.775,354.065 157.862,369.153 255.937,271.081 361.686,376.83 376.773,361.743 		"/>
	</g>
</g>
</svg>