<?xml version="1.0" standalone="no"?>
<!DOCTYPE svg PUBLIC "-//W3C//DTD SVG 20010904//EN"
 "http://www.w3.org/TR/2001/REC-SVG-20010904/DTD/svg10.dtd">
<svg version="1.0" xmlns="http://www.w3.org/2000/svg"
 width="512.000000pt" height="512.000000pt" viewBox="0 0 512.000000 512.000000"
 preserveAspectRatio="xMidYMid meet">

<g transform="translate(0.000000,512.000000) scale(0.100000,-0.100000)"
fill="#000000" stroke="none">
<path d="M3905 3676 c-84 -37 -139 -117 -139 -206 0 -47 16 -96 111 -332 l111
-278 -1365 0 -1364 0 -24 -25 c-32 -31 -32 -69 0 -100 l24 -25 1429 0 1429 0
27 21 c17 14 26 30 26 50 0 16 -59 175 -130 354 -96 239 -129 332 -124 351 8
32 40 54 79 54 26 0 88 -59 502 -473 442 -441 473 -475 473 -507 0 -32 -31
-66 -473 -507 -414 -414 -476 -473 -502 -473 -39 0 -71 22 -79 54 -5 19 28
112 124 351 71 179 130 338 130 354 0 20 -9 36 -26 50 -26 20 -38 21 -316 21
l-289 0 -24 -25 c-32 -31 -32 -69 0 -100 l24 -25 224 0 225 0 -111 -277 c-95
-237 -111 -286 -111 -333 0 -159 172 -268 317 -200 30 14 183 161 519 497 507
508 518 521 518 613 0 92 -11 105 -518 613 -336 336 -489 483 -519 497 -49 23
-133 26 -178 6z"/>
<path d="M25 2835 l-25 -24 0 -251 0 -251 25 -24 24 -25 1621 0 1621 0 24 25
c32 31 32 69 0 100 l-24 25 -1571 0 -1570 0 0 150 0 150 430 0 431 0 24 25
c32 31 32 69 0 100 l-24 25 -481 0 -481 0 -24 -25z"/>
</g>
</svg>
